<?xml version="1.0" encoding="utf-8"?>
<!-- Generator: Adobe Illustrator 16.0.0, SVG Export Plug-In . SVG Version: 6.00 Build 0)  -->
<!DOCTYPE svg PUBLIC "-//W3C//DTD SVG 1.1//EN" "http://www.w3.org/Graphics/SVG/1.1/DTD/svg11.dtd">
<svg version="1.1" xmlns="http://www.w3.org/2000/svg" xmlns:xlink="http://www.w3.org/1999/xlink" x="0px" y="0px"
	 width="85.106px" height="37.233px" viewBox="0 0 85.106 37.233" enable-background="new 0 0 85.106 37.233" xml:space="preserve">
<g id="_x3C_Guides_x3E_" display="none">
</g>
<g id="BG">
</g>
<g id="Laag_1">
	<g>
		<path fill="#FE606E" d="M34.917,34.174c-0.859,0-1.695-0.446-2.155-1.244L17.381,6.287c-0.688-1.189-0.279-2.71,0.91-3.396
			c1.189-0.688,2.711-0.279,3.396,0.91l15.381,26.643c0.688,1.189,0.279,2.71-0.91,3.396C35.767,34.066,35.339,34.174,34.917,34.174
			z"/>
	</g>
	<g>
		<path fill="#FE606E" d="M4.594,34.174c-0.412,0-0.829-0.103-1.214-0.318c-1.198-0.672-1.625-2.188-0.953-3.385L17.365,3.828
			c0.672-1.199,2.188-1.624,3.385-0.953c1.198,0.672,1.625,2.188,0.953,3.385L6.765,32.902C6.309,33.716,5.464,34.174,4.594,34.174z
			"/>
	</g>
	<g>
		<path fill="#FE606E" d="M26.623,34.146H12.889c-1.373,0-2.487-1.114-2.487-2.487s1.114-2.487,2.487-2.487h13.734
			c1.373,0,2.487,1.114,2.487,2.487S27.996,34.146,26.623,34.146z"/>
	</g>
	<g>
		<path fill="#75DDD4" d="M67.442,35.373c-8.707,0-15.792-7.085-15.792-15.792c0-8.706,7.085-15.79,15.792-15.79
			c1.373,0,2.487,1.114,2.487,2.487s-1.114,2.487-2.487,2.487c-5.965,0-10.817,4.852-10.817,10.815
			c0,5.965,4.853,10.817,10.817,10.817S78.26,25.546,78.26,19.581c0-1.373,1.114-2.487,2.487-2.487s2.487,1.114,2.487,2.487
			C83.234,28.288,76.149,35.373,67.442,35.373z"/>
	</g>
	<g>
		<path fill="#75DDD4" d="M80.747,22.068H67.442c-1.373,0-2.487-1.114-2.487-2.487s1.114-2.487,2.487-2.487h13.305
			c1.373,0,2.487,1.114,2.487,2.487S82.12,22.068,80.747,22.068z"/>
	</g>
	<g>
		
			<path fill="none" stroke="#CBCDCE" stroke-width="4.9738" stroke-linecap="round" stroke-linejoin="round" stroke-miterlimit="10" d="
			M47.284,31.966"/>
	</g>
	<g>
		
			<path fill="none" stroke="#414042" stroke-width="4.9738" stroke-linecap="round" stroke-linejoin="round" stroke-miterlimit="10" d="
			M39.642,18.339"/>
	</g>
	<g>
		
			<path fill="none" stroke="#414042" stroke-width="4.9738" stroke-linecap="round" stroke-linejoin="round" stroke-miterlimit="10" d="
			M47.284,4.712"/>
	</g>
	<g>
		<path fill="#414042" d="M39.64,20.826c-0.412,0-0.83-0.103-1.215-0.318c-1.197-0.672-1.624-2.188-0.952-3.386l7.643-13.627
			c0.672-1.197,2.188-1.624,3.386-0.952s1.624,2.188,0.952,3.386l-7.643,13.627C41.354,20.368,40.51,20.826,39.64,20.826z"/>
	</g>
	<g>
		<path fill="#414042" d="M47.286,34.453c-0.87,0-1.715-0.458-2.171-1.271l-7.643-13.627c-0.672-1.198-0.245-2.714,0.952-3.386
			c1.196-0.672,2.714-0.245,3.386,0.952l7.643,13.627c0.672,1.198,0.245,2.714-0.952,3.386
			C48.116,34.351,47.698,34.453,47.286,34.453z"/>
	</g>
</g>
<g id="Capa_1">
</g>
</svg>
