<?xml version="1.0" encoding="utf-8"?>
<!-- Generator: Adobe Illustrator 16.0.0, SVG Export Plug-In . SVG Version: 6.00 Build 0)  -->
<!DOCTYPE svg PUBLIC "-//W3C//DTD SVG 1.1//EN" "http://www.w3.org/Graphics/SVG/1.1/DTD/svg11.dtd">
<svg version="1.1" xmlns="http://www.w3.org/2000/svg" xmlns:xlink="http://www.w3.org/1999/xlink" x="0px" y="0px" width="80px"
	 height="80px" viewBox="0 0 80 80" enable-background="new 0 0 80 80" xml:space="preserve">
<g id="_x3C_Guides_x3E_" display="none">
</g>
<g id="BG">
</g>
<g id="Laag_1">
</g>
<g id="Capa_1">
	<path fill="none" d="M30.082,29.707c-0.114,0.273-0.199,0.467-0.287,0.664c-0.069,0.158-0.147,0.321-0.21,0.485
		c-0.027,0.1-0.057,0.198-0.089,0.296c-0.009,0.027-0.042,0.126-0.051,0.153c-0.175,0.519-0.286,0.879-0.354,1.115l0.012,1.555
		c0.015,1.894,2.299,5.423,4.134,8.26c0.984,1.521,2.001,3.091,2.932,4.732l0.039,0.047c0.362,0.432,0.909,1.083,1.406,1.936
		c0.204,0.352,0.413,0.695,0.625,1.044c0.183,0.301,0.359,0.609,0.54,0.914c0.944-1.58,1.893-3.16,2.81-4.738
		c0.603-1.04,1.254-2.107,1.911-3.182c1.886-3.085,4.021-6.575,4.329-8.827c0.01-0.15,0.018-0.371,0.021-0.495l-0.012-1.57
		c-0.905-6.364-6.114-8.07-9.146-8.07c-0.021,0-0.042,0-0.063,0C36.748,24.04,32.152,24.623,30.082,29.707z"/>
	<path fill="#CBCDCE" d="M33.552,70.957c-0.055-0.052-0.104-0.106-0.155-0.159C33.448,70.851,33.498,70.906,33.552,70.957z"/>
	<path fill="#CBCDCE" d="M41.038,72.631c-0.143,0.047-0.283,0.102-0.429,0.14C40.754,72.732,40.896,72.678,41.038,72.631z"/>
	<path fill="#CBCDCE" d="M32.925,70.277c-0.051-0.062-0.101-0.123-0.148-0.186C32.825,70.154,32.874,70.216,32.925,70.277z"/>
	<path fill="#CBCDCE" d="M34.438,71.669c-0.076-0.053-0.156-0.102-0.23-0.156C34.282,71.568,34.362,71.616,34.438,71.669z"/>
	<path fill="#CBCDCE" d="M42.544,71.964c0.145-0.086,0.279-0.183,0.416-0.276c-0.166,0.113-0.334,0.223-0.507,0.322
		C42.483,71.992,42.515,71.981,42.544,71.964z"/>
	<path fill="#CBCDCE" d="M36.361,72.623c-0.175-0.059-0.352-0.113-0.524-0.185C36.009,72.51,36.185,72.564,36.361,72.623z"/>
	<path fill="#CBCDCE" d="M37.265,72.86c-0.158-0.031-0.318-0.056-0.477-0.098C36.945,72.805,37.106,72.829,37.265,72.86z"/>
	<path fill="#CBCDCE" d="M35.488,72.272c-0.191-0.092-0.382-0.185-0.569-0.294C35.104,72.087,35.296,72.181,35.488,72.272z"/>
	<path fill="#CBCDCE" d="M40.162,72.86c-0.167,0.032-0.331,0.073-0.5,0.095C39.829,72.935,39.995,72.893,40.162,72.86z"/>
	<path fill="#CBCDCE" d="M41.893,72.293c-0.116,0.055-0.228,0.115-0.347,0.163C41.663,72.408,41.776,72.348,41.893,72.293z"/>
	<path fill="#CBCDCE" d="M32.304,61.62l1.366-2.246c1.69-2.776,3.406-5.617,5.108-8.466c-0.181-0.305-0.357-0.613-0.54-0.914
		c-0.212-0.349-0.421-0.692-0.625-1.044c-0.497-0.853-1.044-1.504-1.406-1.936l-0.039-0.047c-0.931-1.642-1.947-3.212-2.932-4.732
		c-1.835-2.837-4.119-6.366-4.134-8.26l-0.012-1.555c0.068-0.236,0.18-0.597,0.354-1.115c0.009-0.027,0.042-0.126,0.051-0.153
		c0.032-0.098,0.062-0.196,0.089-0.296c0.063-0.164,0.141-0.327,0.21-0.485c0.088-0.197,0.173-0.391,0.287-0.664
		c2.07-5.084,6.666-5.667,8.546-5.682c-0.02,0-0.039,0-0.06,0c-4.115,0-7.467-3.319-7.499-7.441c-0.032-4.143,3.3-7.526,7.441-7.559
		c-7.858,0.062-17.85,4.041-22.285,14.939l-0.15,0.344c-0.264,0.597-0.616,1.394-0.889,2.34c-0.825,2.468-1.114,3.825-1.102,5.136
		l0.018,2.307c0.048,6.261,3.498,11.591,6.541,16.294c0.961,1.484,1.868,2.886,2.579,4.165c0.515,0.94,1.105,1.645,1.497,2.11
		l0.089,0.107c0.197,0.334,0.402,0.674,0.61,1.016c0.283,0.466,0.572,0.938,0.836,1.411c0.036,0.065,0.073,0.13,0.112,0.194
		c1.068,1.792,2.15,3.624,3.238,5.466c0.869,1.472,1.741,2.949,2.615,4.42C30.894,66.978,30.828,64.047,32.304,61.62z"/>
	<path fill="#CBCDCE" d="M38.719,73.018c0.112,0,0.226-0.018,0.339-0.022c-0.115,0.006-0.23,0.022-0.346,0.022
		C38.714,73.018,38.716,73.018,38.719,73.018z"/>
	<path fill="#CBCDCE" d="M45.095,69.448c-0.15,0.245-0.315,0.476-0.488,0.696C44.782,69.92,44.947,69.689,45.095,69.448z"/>
	<path fill="#CBCDCE" d="M43.825,71.001c-0.21,0.195-0.429,0.38-0.657,0.548C43.4,71.378,43.618,71.193,43.825,71.001z"/>
	<path fill="#CBCDCE" d="M45.165,69.339l-0.029,0.049C45.146,69.371,45.155,69.355,45.165,69.339z"/>
	<path fill="#CBCDCE" d="M32.265,69.349c0.009,0.015,0.02,0.026,0.028,0.041c-0.015-0.023-0.031-0.046-0.045-0.069
		C32.253,69.33,32.259,69.339,32.265,69.349z"/>
	<path fill="#CBCDCE" d="M38.425,72.999c-0.227-0.009-0.451-0.017-0.677-0.046C37.972,72.982,38.198,72.99,38.425,72.999z"/>
	<path fill="#CBCDCE" d="M44.456,70.329c-0.147,0.177-0.303,0.344-0.464,0.504C44.155,70.671,44.31,70.504,44.456,70.329z"/>
	<path fill="#CBCDCE" d="M40.609,72.771c-0.148,0.039-0.298,0.061-0.447,0.09C40.312,72.831,40.462,72.809,40.609,72.771z"/>
	<path fill="#CBCDCE" d="M42.453,72.01c-0.184,0.105-0.372,0.195-0.561,0.283C42.082,72.205,42.271,72.115,42.453,72.01z"/>
	<path fill="#CBCDCE" d="M44.606,70.145c-0.049,0.063-0.1,0.124-0.15,0.185C44.507,70.269,44.558,70.207,44.606,70.145z"/>
	<path fill="#CBCDCE" d="M45.12,69.413l0.016-0.025c-0.013,0.021-0.027,0.04-0.041,0.061C45.103,69.436,45.112,69.426,45.12,69.413z
		"/>
	<path fill="#CBCDCE" d="M41.546,72.456c-0.166,0.068-0.338,0.119-0.508,0.175C41.209,72.575,41.38,72.523,41.546,72.456z"/>
	<path fill="#CBCDCE" d="M43.992,70.833c-0.056,0.056-0.108,0.113-0.167,0.168C43.883,70.947,43.937,70.889,43.992,70.833z"/>
	<path fill="#CBCDCE" d="M43.168,71.549c-0.066,0.049-0.14,0.092-0.208,0.139C43.028,71.641,43.101,71.599,43.168,71.549z"/>
	<path fill="#CBCDCE" d="M33.396,70.798c-0.164-0.165-0.322-0.339-0.472-0.521C33.072,70.457,33.229,70.631,33.396,70.798z"/>
	<path fill="#CBCDCE" d="M34.208,71.513c-0.229-0.172-0.447-0.357-0.656-0.556C33.759,71.152,33.977,71.339,34.208,71.513z"/>
	<path fill="#CBCDCE" d="M34.815,71.925c0.033,0.021,0.07,0.034,0.104,0.054c-0.164-0.096-0.323-0.201-0.48-0.31
		C34.563,71.755,34.685,71.845,34.815,71.925z"/>
	<path fill="#CBCDCE" d="M32.776,70.092c-0.172-0.224-0.335-0.456-0.483-0.702C32.438,69.632,32.602,69.865,32.776,70.092z"/>
	<path fill="#CBCDCE" d="M62.784,30.745c-1.632-14.291-13.32-21.72-24.091-21.72c-0.041,0-0.082,0-0.123,0
		c4.115,0,7.467,3.319,7.499,7.441c0.032,4.143-3.3,7.526-7.441,7.559c0.021,0,0.041,0,0.063,0c3.032,0,8.241,1.706,9.146,8.07
		l0.012,1.57c-0.003,0.124-0.011,0.345-0.021,0.495c-0.309,2.252-2.443,5.742-4.329,8.827c-0.657,1.074-1.309,2.142-1.911,3.182
		c-0.917,1.578-1.865,3.158-2.81,4.738c0.176,0.295,0.357,0.588,0.523,0.885c1.063,1.782,2.139,3.604,3.22,5.435
		c0.876,1.484,1.757,2.975,2.638,4.457c1.451,2.44,1.355,5.37,0.006,7.654l1.317-2.165c2.667-4.38,5.425-8.909,8.079-13.476
		c0.551-0.951,1.141-1.914,1.734-2.885c2.716-4.44,5.793-9.474,6.441-14.99c0.005-0.044,0.01-0.088,0.014-0.133
		c0.059-0.588,0.1-1.565,0.098-2.062l-0.016-2.089C62.831,31.274,62.814,31.009,62.784,30.745z"/>
	<path fill="#CBCDCE" d="M32.248,69.32c-0.009-0.016-0.019-0.031-0.027-0.046C32.229,69.29,32.239,69.305,32.248,69.32z"/>
	<path fill="#CBCDCE" d="M37.748,72.953c-0.163-0.021-0.321-0.061-0.483-0.093C37.427,72.893,37.587,72.933,37.748,72.953z"/>
	<path fill="#CBCDCE" d="M38.705,73.018c0.003,0,0.005,0,0.007,0c-0.096,0-0.191-0.015-0.287-0.019
		C38.519,73.002,38.611,73.018,38.705,73.018z"/>
	<path fill="#CBCDCE" d="M39.662,72.955c-0.202,0.026-0.403,0.031-0.604,0.04C39.259,72.986,39.462,72.981,39.662,72.955z"/>
	<path fill="#CBCDCE" d="M35.837,72.438c-0.119-0.05-0.232-0.11-0.349-0.166C35.604,72.328,35.72,72.39,35.837,72.438z"/>
	<path fill="#CBCDCE" d="M36.788,72.763c-0.145-0.038-0.285-0.093-0.427-0.14C36.504,72.67,36.644,72.725,36.788,72.763z"/>
	<path fill="#A2A5A6" d="M45.159,61.685c-0.881-1.482-1.762-2.973-2.638-4.457c-1.081-1.831-2.156-3.652-3.22-5.435
		c-0.166-0.297-0.348-0.59-0.523-0.885c-1.702,2.849-3.418,5.689-5.108,8.466l-1.366,2.246c-1.476,2.427-1.41,5.357-0.083,7.654
		c0.009,0.015,0.019,0.03,0.027,0.046c0.014,0.023,0.03,0.046,0.045,0.069c0.148,0.246,0.312,0.479,0.483,0.702
		c0.048,0.063,0.098,0.124,0.148,0.186c0.149,0.182,0.308,0.355,0.472,0.521c0.052,0.053,0.101,0.107,0.155,0.159
		c0.209,0.198,0.428,0.384,0.656,0.556c0.074,0.055,0.154,0.104,0.23,0.156c0.157,0.108,0.316,0.214,0.48,0.31
		c0.188,0.109,0.378,0.202,0.569,0.294c0.116,0.056,0.229,0.116,0.349,0.166c0.173,0.071,0.35,0.126,0.524,0.185
		c0.142,0.047,0.282,0.102,0.427,0.14c0.158,0.042,0.318,0.066,0.477,0.098c0.162,0.032,0.32,0.072,0.483,0.093
		c0.226,0.029,0.45,0.037,0.677,0.046c0.096,0.004,0.191,0.019,0.287,0.019c0.115,0,0.23-0.017,0.346-0.022
		c0.201-0.009,0.402-0.014,0.604-0.04c0.169-0.021,0.333-0.063,0.5-0.095c0.149-0.029,0.299-0.051,0.447-0.09
		c0.146-0.038,0.286-0.093,0.429-0.14c0.17-0.056,0.342-0.106,0.508-0.175c0.119-0.048,0.23-0.108,0.347-0.163
		c0.188-0.088,0.377-0.178,0.561-0.283c0.173-0.1,0.341-0.209,0.507-0.322c0.068-0.047,0.142-0.09,0.208-0.139
		c0.229-0.168,0.447-0.353,0.657-0.548c0.059-0.055,0.111-0.112,0.167-0.168c0.161-0.16,0.316-0.327,0.464-0.504
		c0.051-0.061,0.102-0.122,0.15-0.185c0.173-0.221,0.338-0.451,0.488-0.696c0.014-0.021,0.028-0.04,0.041-0.061l0.029-0.049
		C46.515,67.055,46.61,64.125,45.159,61.685z"/>
	<path fill="#A2A5A6" d="M31.069,16.584c0.032,4.122,3.384,7.441,7.499,7.441c0.021,0,0.04,0,0.06,0
		c4.142-0.032,7.474-3.416,7.441-7.559c-0.032-4.122-3.384-7.441-7.499-7.441c-0.02,0-0.039,0-0.06,0
		C34.369,9.058,31.037,12.441,31.069,16.584z"/>
</g>
</svg>
