<?xml version="1.0" encoding="utf-8"?>
<!-- Generator: Adobe Illustrator 16.0.0, SVG Export Plug-In . SVG Version: 6.00 Build 0)  -->
<!DOCTYPE svg PUBLIC "-//W3C//DTD SVG 1.1//EN" "http://www.w3.org/Graphics/SVG/1.1/DTD/svg11.dtd">
<svg version="1.1" xmlns="http://www.w3.org/2000/svg" xmlns:xlink="http://www.w3.org/1999/xlink" x="0px" y="0px" width="80px"
	 height="80px" viewBox="0 0 80 80" enable-background="new 0 0 80 80" xml:space="preserve">
<g id="_x3C_Guides_x3E_" display="none">
</g>
<g id="BG">
</g>
<g id="Laag_1">
</g>
<g id="Capa_1">
	<path fill="none" d="M27.506,38.648c0,7.812,6.355,14.167,14.168,14.167s14.168-6.355,14.168-14.167s-6.355-14.167-14.168-14.167
		S27.506,30.837,27.506,38.648z"/>
	<path fill="#75DDD4" d="M41.674,9.481c4.143,0,7.5,3.357,7.5,7.5s-3.357,7.5-7.5,7.5c7.813,0,14.168,6.355,14.168,14.167
		s-6.355,14.167-14.168,14.167c4.143,0,7.5,3.357,7.5,7.5s-3.357,7.5-7.5,7.5c16.083,0,29.168-13.084,29.168-29.167
		S57.757,9.481,41.674,9.481z"/>
	<path fill="#75DDD4" d="M34.174,60.315c0-4.143,3.357-7.5,7.5-7.5c-7.813,0-14.168-6.355-14.168-14.167s6.355-14.167,14.168-14.167
		c-4.143,0-7.5-3.357-7.5-7.5s3.357-7.5,7.5-7.5c-16.083,0-29.168,13.084-29.168,29.167s13.085,29.167,29.168,29.167
		C37.531,67.815,34.174,64.458,34.174,60.315z"/>
	<circle fill="#36C0B0" cx="41.674" cy="60.315" r="7.5"/>
	<circle fill="#36C0B0" cx="41.674" cy="16.981" r="7.5"/>
</g>
</svg>
