<?xml version="1.0" encoding="utf-8"?>
<!-- Generator: Adobe Illustrator 16.0.0, SVG Export Plug-In . SVG Version: 6.00 Build 0)  -->
<!DOCTYPE svg PUBLIC "-//W3C//DTD SVG 1.1//EN" "http://www.w3.org/Graphics/SVG/1.1/DTD/svg11.dtd">
<svg version="1.1" xmlns="http://www.w3.org/2000/svg" xmlns:xlink="http://www.w3.org/1999/xlink" x="0px" y="0px"
	 width="313.747px" height="375.671px" viewBox="0 0 313.747 375.671" enable-background="new 0 0 313.747 375.671"
	 xml:space="preserve">
<g id="_x3C_Guides_x3E_" display="none">
</g>
<g id="BG">
</g>
<g id="Laag_1">
	<g>
		<path fill="#FE606E" d="M96.965,370.599c-1.757,0-3.538-0.438-5.18-1.357c-5.111-2.866-6.932-9.333-4.065-14.444l63.74-113.67
			c2.866-5.111,9.331-6.931,14.444-4.065c5.111,2.866,6.932,9.333,4.065,14.444l-63.74,113.67
			C104.283,368.646,100.679,370.599,96.965,370.599z"/>
	</g>
	<g>
		<path fill="#75DDD4" d="M195.109,130.463h-56.764c-5.86,0-10.61-4.75-10.61-10.61s4.75-10.61,10.61-10.61h56.764
			c5.86,0,10.61,4.75,10.61,10.61S200.97,130.463,195.109,130.463z"/>
	</g>
	<g>
		<path fill="#414042" d="M27.217,136.129c-1.757,0-3.538-0.438-5.18-1.357c-5.111-2.866-6.932-9.333-4.065-14.444l32.604-58.141
			c2.865-5.112,9.332-6.932,14.444-4.065c5.111,2.866,6.932,9.333,4.065,14.444l-32.604,58.141
			C34.536,134.176,30.931,136.129,27.217,136.129z"/>
	</g>
	<g>
		<path fill="#414042" d="M292.281,285.999c-3.714,0-7.318-1.953-9.265-5.423l-32.604-58.141
			c-2.866-5.111-1.046-11.578,4.065-14.444c5.112-2.863,11.578-1.045,14.444,4.065l32.604,58.141
			c2.866,5.111,1.046,11.578-4.065,14.444C295.819,285.562,294.038,285.999,292.281,285.999z"/>
	</g>
</g>
<g id="Capa_1">
</g>
</svg>
