<?xml version="1.0" encoding="utf-8"?>
<!-- Generator: Adobe Illustrator 16.0.0, SVG Export Plug-In . SVG Version: 6.00 Build 0)  -->
<!DOCTYPE svg PUBLIC "-//W3C//DTD SVG 1.1//EN" "http://www.w3.org/Graphics/SVG/1.1/DTD/svg11.dtd">
<svg version="1.1" xmlns="http://www.w3.org/2000/svg" xmlns:xlink="http://www.w3.org/1999/xlink" x="0px" y="0px"
	 width="313.747px" height="375.671px" viewBox="0 0 313.747 375.671" enable-background="new 0 0 313.747 375.671"
	 xml:space="preserve">
<g id="_x3C_Guides_x3E_" display="none">
</g>
<g id="BG">
</g>
<g id="Laag_1">
	<g>
		<path fill="#FE606E" d="M269.743,173.894c-3.667,0-7.233-1.903-9.199-5.308l-65.623-113.67c-2.93-5.075-1.19-11.563,3.885-14.494
			c5.074-2.928,11.563-1.19,14.494,3.885l65.623,113.67c2.93,5.075,1.19,11.563-3.885,14.494
			C273.367,173.435,271.543,173.894,269.743,173.894z"/>
	</g>
	<g>
		<path fill="#FE606E" d="M122.001,117.057H63.403c-5.86,0-10.61-4.75-10.61-10.61s4.75-10.61,10.61-10.61h58.598
			c5.86,0,10.61,4.75,10.61,10.61S127.861,117.057,122.001,117.057z"/>
	</g>
	<g>
		<path fill="#75DDD4" d="M115.196,323.762c-37.151,0-67.376-30.225-67.376-67.376c0-37.146,30.225-67.366,67.376-67.366
			c5.86,0,10.61,4.75,10.61,10.61s-4.75,10.61-10.61,10.61c-25.45,0-46.155,20.701-46.155,46.146
			c0,25.45,20.705,46.155,46.155,46.155c25.448,0,46.151-20.705,46.151-46.155c0-5.86,4.75-10.61,10.61-10.61
			s10.61,4.75,10.61,10.61C182.568,293.537,152.346,323.762,115.196,323.762z"/>
	</g>
</g>
<g id="Capa_1">
</g>
</svg>
