<?xml version="1.0" encoding="utf-8"?>
<!-- Generator: Adobe Illustrator 16.0.0, SVG Export Plug-In . SVG Version: 6.00 Build 0)  -->
<!DOCTYPE svg PUBLIC "-//W3C//DTD SVG 1.1//EN" "http://www.w3.org/Graphics/SVG/1.1/DTD/svg11.dtd">
<svg version="1.1" xmlns="http://www.w3.org/2000/svg" xmlns:xlink="http://www.w3.org/1999/xlink" x="0px" y="0px"
	 width="359.157px" height="174.763px" viewBox="0 0 359.157 174.763" enable-background="new 0 0 359.157 174.763"
	 xml:space="preserve">
<g id="_x3C_Guides_x3E_" display="none">
</g>
<g id="BG">
</g>
<g id="Laag_1">
</g>
<g id="Capa_1">
	<g>
		<g id="Facebook_Places_3_">
			<path fill="#CBCDCE" d="M180.134,140.737c-0.01,0-0.02,0-0.029,0c-2.105-0.011-4.052-1.124-5.128-2.934
				c-2.232-3.755-4.463-7.531-6.682-11.289c-2.659-4.503-5.302-8.979-7.915-13.36c-0.031-0.052-0.063-0.105-0.092-0.159
				c-0.721-1.296-1.547-2.655-2.345-3.969c-0.595-0.978-1.183-1.945-1.736-2.896c-0.173-0.297-0.67-0.89-1.07-1.366
				c-0.762-0.907-1.625-1.936-2.297-3.167c-2.005-3.602-4.356-7.236-6.846-11.083c-6.92-10.693-14.075-21.751-14.168-33.583
				l-0.043-5.706c-0.009-1.149,0.15-2.88,2.16-8.879l0.007-0.019c0.438-1.603,1.093-3.083,1.672-4.396
				c0.161-0.364,0.318-0.72,0.463-1.063c8.708-21.387,28.262-29.158,43.649-29.278l0.363-0.001
				c20.339,0,43.754,13.326,47.098,42.585c0.024,0.211,0.037,0.423,0.039,0.636l0.039,5.166c0.008,0.418-0.064,2.584-0.182,3.766
				c-0.004,0.035-0.008,0.069-0.012,0.104c-1.279,10.907-7.83,21.621-14.165,31.981c-1.566,2.562-3.046,4.981-4.445,7.399
				c-6.528,11.228-13.355,22.44-19.957,33.284l-3.252,5.344C184.172,139.645,182.228,140.737,180.134,140.737z M170.73,107.084
				c2.607,4.371,5.245,8.837,7.897,13.329c0.524,0.889,1.05,1.779,1.576,2.669c5.961-9.794,12.059-19.854,17.887-29.876
				c1.465-2.532,3.052-5.127,4.586-7.637c5.647-9.235,11.486-18.784,12.479-27.063c0.062-0.663,0.114-2.128,0.118-2.475l-0.036-4.8
				c-2.637-21.735-20.028-31.641-35.14-31.641l-0.271,0.001c-5.589,0.043-24.463,1.749-32.654,21.865
				c-0.196,0.469-0.383,0.891-0.572,1.322c-0.442,1.002-0.9,2.039-1.095,2.786c-0.027,0.107-0.059,0.212-0.092,0.317l-0.093,0.279
				c-1.17,3.493-1.468,4.862-1.536,5.231l0.041,5.449c0.064,8.337,6.256,17.904,12.243,27.156c2.486,3.843,5.058,7.816,7.279,11.809
				c0.15,0.257,0.649,0.851,0.979,1.244c0.733,0.873,1.563,1.862,2.254,3.051c0.513,0.88,1.062,1.783,1.616,2.694
				C169.039,104.18,169.91,105.612,170.73,107.084z M179.757,75.697c-11.896,0-21.645-9.573-21.734-21.34
				c-0.045-5.757,2.087-11.166,6.003-15.227c3.963-4.109,9.327-6.397,15.105-6.443l0.18,0c10.367,0,20.915,6.739,21.018,19.62
				l0.024,3.339c0.058,3.673-0.53,5.31-0.724,5.848c-0.014,0.039-0.028,0.077-0.043,0.116c-3.348,8.748-10.695,14.014-19.655,14.087
				L179.757,75.697z M179.311,44.688l-0.086,0c-2.526,0.02-4.856,1.004-6.562,2.772c-1.724,1.788-2.661,4.204-2.641,6.805
				c0.039,5.202,4.406,9.432,9.734,9.432c2.822-0.022,6.497-1.111,8.521-6.122c0.035-0.253,0.09-0.854,0.075-1.762l-0.025-3.416
				C188.268,44.775,179.676,44.688,179.311,44.688z"/>
		</g>
	</g>
	<g>
		<g id="Facebook_Places_2_">
			<path fill="#FE606E" d="M116.693,160.737c-0.492,0-0.988-0.061-1.478-0.185c-4.304-1.093-8.62-2.205-12.914-3.31
				c-4.995-1.286-9.959-2.564-14.838-3.798c-0.06-0.015-0.118-0.031-0.178-0.048c-1.418-0.405-2.956-0.78-4.443-1.143
				c-1.12-0.273-2.228-0.543-3.297-0.826c-0.328-0.086-1.102-0.154-1.723-0.208c-1.178-0.103-2.512-0.219-3.854-0.61
				c-3.976-1.134-8.211-2.042-12.693-3.003c-12.451-2.669-25.326-5.429-33.755-13.727l-4.065-4.002
				c-0.888-0.875-2.078-2.427-4.763-7.83c-0.822-1.445-1.408-2.954-1.927-4.293c-0.143-0.368-0.282-0.729-0.423-1.073
				C7.377,95.402,15.71,76.08,26.508,65.114c8.975-9.116,21.291-14.344,33.791-14.344c10.58,0,20.912,3.768,29.878,10.896
				c0.167,0.132,0.326,0.273,0.478,0.422l3.68,3.625c0.299,0.288,1.787,1.876,2.539,2.797c6.867,8.692,9.811,20.896,12.657,32.698
				c0.704,2.922,1.37,5.682,2.091,8.383c3.302,12.477,6.384,25.15,9.364,37.406l1.537,6.319c0.499,2.045-0.111,4.203-1.607,5.684
				C119.778,160.127,118.255,160.737,116.693,160.737z M90.491,141.833c4.868,1.23,9.82,2.506,14.803,3.789
				c1.067,0.275,2.137,0.55,3.207,0.825c-2.71-11.137-5.512-22.565-8.478-33.773c-0.755-2.829-1.469-5.789-2.159-8.652
				c-2.543-10.544-5.172-21.447-10.346-27.996c-0.341-0.416-1.389-1.542-1.632-1.79l-3.42-3.368
				c-6.852-5.374-14.309-8.098-22.168-8.098c-9.307,0-18.506,3.923-25.24,10.763c-3.922,3.984-16.064,18.537-7.631,38.552
				c0.191,0.469,0.357,0.896,0.526,1.331c0.397,1.024,0.808,2.084,1.201,2.753c0.06,0.103,0.117,0.207,0.171,0.313l0.104,0.208
				c1.645,3.312,2.41,4.502,2.626,4.815l3.883,3.823c5.939,5.849,17.078,8.236,27.851,10.545c4.479,0.96,9.109,1.953,13.506,3.207
				c0.281,0.073,1.056,0.141,1.567,0.185c1.135,0.099,2.421,0.21,3.748,0.561c0.999,0.264,2.03,0.515,3.072,0.769
				C87.254,140.978,88.877,141.374,90.491,141.833z M59.229,119.665c-5.665,0-10.995-2.177-15.008-6.129
				c-8.59-8.458-8.766-21.745-0.397-30.248c4.251-4.315,9.89-6.789,15.472-6.789c4.991,0,9.622,1.962,13.393,5.673l2.378,2.344
				c1.736,1.678,2.964,3.25,3.622,4.645c0.018,0.037,0.034,0.074,0.051,0.111c3.82,8.554,2.348,17.474-3.938,23.861
				C70.655,117.346,65.125,119.665,59.229,119.665z M59.295,88.499c-2.319,0-4.972,1.229-6.921,3.208
				c-3.647,3.706-3.53,9.54,0.268,13.279c1.754,1.728,4.093,2.679,6.587,2.679c2.655,0,5.148-1.047,7.02-2.949
				c1.928-1.958,3.756-5.325,1.643-10.3c-0.168-0.222-0.578-0.704-1.192-1.297l-2.433-2.398
				C62.748,89.227,61.121,88.499,59.295,88.499z"/>
		</g>
	</g>
	<g>
		<g id="Facebook_Places_1_">
			<path fill="#75DDD4" d="M243.577,160.737c-1.582,0-3.123-0.626-4.263-1.778c-1.482-1.496-2.071-3.659-1.553-5.7
				c1.093-4.3,2.204-8.614,3.309-12.905c1.287-4.998,2.565-9.966,3.8-14.848c0.016-0.059,0.031-0.117,0.048-0.175
				c0.4-1.404,0.771-2.926,1.13-4.398c0.277-1.137,0.552-2.262,0.841-3.348c0.084-0.32,0.151-1.092,0.205-1.712
				c0.103-1.181,0.219-2.519,0.612-3.864c1.134-3.973,2.041-8.209,3.003-12.693c2.668-12.45,5.427-25.324,13.726-33.752l4.003-4.066
				c0.813-0.825,2.154-1.941,7.828-4.762c1.448-0.825,2.963-1.412,4.306-1.932c0.366-0.142,0.724-0.28,1.065-0.419
				c5.948-2.507,12.136-3.792,18.321-3.792c12.117,0,24.233,5.088,33.242,13.958c14.605,14.38,21.915,40.438,3.449,63.669
				c-0.133,0.166-0.273,0.325-0.422,0.477l-3.624,3.68c-0.268,0.275-1.857,1.77-2.799,2.539c-8.694,6.87-20.901,9.813-32.708,12.659
				c-2.919,0.704-5.676,1.369-8.375,2.088c-12.432,3.291-25.063,6.363-37.277,9.334l-6.445,1.569
				C244.527,160.681,244.051,160.737,243.577,160.737z M256.482,128.533c-1.231,4.872-2.508,9.827-3.791,14.813
				c-0.274,1.065-0.549,2.131-0.823,3.199c11.136-2.71,22.564-5.511,33.772-8.479c2.827-0.754,5.784-1.467,8.644-2.156
				c10.548-2.543,21.454-5.173,28.004-10.348c0.413-0.338,1.549-1.395,1.801-1.641l3.357-3.41
				c13.61-17.365,8.187-36.726-2.665-47.41c-6.783-6.679-15.831-10.509-24.823-10.509c-4.577,0-9.196,0.968-13.729,2.878
				c-0.47,0.191-0.893,0.355-1.324,0.523c-1.026,0.397-2.089,0.809-2.761,1.203c-0.101,0.059-0.202,0.115-0.307,0.168l-0.223,0.112
				c-3.309,1.645-4.495,2.408-4.807,2.623l-3.823,3.883c-5.848,5.939-8.234,17.077-10.543,27.848
				c-0.96,4.479-1.953,9.111-3.208,13.509c-0.074,0.284-0.142,1.059-0.186,1.572c-0.099,1.133-0.21,2.417-0.56,3.742
				c-0.271,1.019-0.524,2.064-0.782,3.121C257.328,125.328,256.937,126.935,256.482,128.533z M299.649,118.879
				c-5.375,0-10.513-2.144-14.469-6.035c-4.105-4.042-6.424-9.432-6.528-15.179c-0.105-5.813,2.069-11.282,6.123-15.4
				c4.146-4.209,9.613-6.527,15.397-6.527c5.563,0,10.839,2.177,14.854,6.129c7.269,7.157,10.131,19.704,1.117,28.861l-2.345,2.379
				c-2.567,2.643-4.133,3.38-4.647,3.622c-0.036,0.017-0.072,0.034-0.108,0.05C305.925,118.173,302.765,118.879,299.649,118.879z
				 M300.173,87.739c-2.544,0-4.976,1.046-6.848,2.947c-1.771,1.799-2.721,4.201-2.675,6.763c0.047,2.588,1.094,5.019,2.947,6.843
				c1.199,1.18,3.224,2.588,6.052,2.588c1.343,0,2.771-0.318,4.249-0.946c0.203-0.153,0.664-0.538,1.298-1.19l2.397-2.434
				c5.396-5.482-0.724-11.631-0.986-11.89C304.852,88.69,302.566,87.739,300.173,87.739z"/>
		</g>
	</g>
</g>
</svg>
